<svg width="34" height="34" viewBox="0 0 34 34" fill="none" xmlns="http://www.w3.org/2000/svg">
<path d="M1 25.9369C1 25.9369 4.84371 28.0249 9 28.5315C11.099 28.7874 14.6209 29.0122 17.8571 28.964C19.8109 28.9348 22.2857 28.5315 22.2857 28.5315L22.4286 27.955C22.4286 27.955 24.4523 27.4526 25.4286 26.9459C26.4049 26.4393 27.4286 25.3604 27.4286 25.3604C27.4286 25.3604 23.5958 25.3527 19.5714 24.9279C16.3649 24.5895 13.0366 23.904 11.4286 23.3423C7.80227 22.0758 8.85714 18.8739 8.85714 18.8739C8.85714 18.8739 9.79038 17.8964 10.5714 18.009C11.3525 18.1216 13.4286 19.5946 13.4286 19.5946C13.4286 19.5946 14.1765 20.3721 16.7143 21.036C18.6249 21.5359 21.5973 21.6601 23.1429 21.7568C26.7413 21.9819 31.2857 20.6036 31.2857 20.6036C31.2857 20.6036 31.3035 18.9097 30.8571 18.009C30.355 16.9958 29 15.991 29 15.991V15.4144C29 15.4144 30.3618 14.6485 31.1429 13.973C31.9239 13.2975 32 12.964 32 12.964C32 12.964 32.2333 12.7883 32.4286 12.6757C32.6238 12.5631 33 12.2432 33 12.2432V11.8108C33 11.8108 31.3753 12.6791 29.7143 12.964C28.937 13.0973 27.2198 13.2518 26.5714 13.2523C26.5714 13.2523 24.5232 13.045 23.7143 12.8198C23.3613 12.7216 23.0716 12.5719 22.8571 12.4343C22.5801 12.2566 22.4286 12.0991 22.4286 12.0991C22.4286 12.0991 21.1649 12.7778 19.4286 13.1081C17.9359 13.3921 16.0316 13.3433 15 13.2523C12.7684 13.0552 11 11.0901 11 11.0901C11 11.0901 9.58917 11.0867 9.14286 10.9459C8.69654 10.8052 8.71429 10.5135 8.71429 10.5135C8.71429 10.5135 8.69654 10.0495 9.14286 9.93694C9.58917 9.82436 11 9.93694 11 9.93694C11 9.93694 13.5664 7.96838 15.7143 7.63063C17.8622 7.29288 22 8.20721 22 8.20721L20.7857 6.90991L19.5714 5.75676C19.5714 5.75676 19.5959 4.82194 19.4286 4.31532C19.2612 3.80869 18.7143 3.01802 18.7143 3.01802C18.7143 3.01802 17.5232 1.97062 16.7143 1.57658C15.9053 1.18253 14.5714 1 14.5714 1H10.8571C10.8571 1 8.99744 1.55443 7.71429 3.01802C7.13024 3.6842 6.16464 4.9086 5.57143 6.04505C4.86136 7.40536 4.57143 8.4955 4.57143 8.4955C4.57143 8.4955 3.12594 9.20856 2.42857 10.0811C1.73121 10.9536 1 13.1081 1 13.1081V25.9369Z" fill="#58883C"/>
<path d="M20.5714 29.8288C21.3246 29.5192 22.2857 28.5315 22.2857 28.5315C22.2857 28.5315 19.8109 28.9348 17.8571 28.964C14.6209 29.0122 11.099 28.7874 9 28.5315C4.84371 28.0249 1 25.9369 1 25.9369V26.8018C1 26.8018 4.88257 29.0373 8.28571 29.6847C11.6889 30.332 18.4286 30.1171 18.4286 30.1171C18.4286 30.1171 19.8183 30.1384 20.5714 29.8288Z" fill="#58883C"/>
<path d="M23 8.78379L22 8.20721C22 8.20721 17.8622 7.29288 15.7143 7.63063C13.5664 7.96838 11 9.93694 11 9.93694C11 9.93694 9.58917 9.82436 9.14286 9.93694C8.69654 10.0495 8.71429 10.5135 8.71429 10.5135C8.71429 10.5135 8.69654 10.8052 9.14286 10.9459C9.58917 11.0867 11 11.0901 11 11.0901C11 11.0901 12.3965 9.77914 13.4286 9.21622C14.4607 8.6533 16.2857 8.35135 16.2857 8.35135C16.2857 8.35135 18.5182 8.27374 19.8571 8.63964C21.1961 9.00554 23.1429 10.0811 23.1429 10.0811C23.1429 10.0811 25.2181 8.55179 27.1429 8.4955C28.0315 8.46951 29.5215 8.65789 30.7143 8.92793C32.1049 9.24276 33 9.7928 33 9.7928V9.36036C33 9.36036 32.7979 9.0413 32.5103 8.63964C32.5103 8.63964 28.9999 7.60249 27.1429 7.63063C25.2859 7.65878 23 8.78379 23 8.78379Z" fill="#58883C"/>
<path d="M31.5714 7.48649C30.902 6.81099 29.8571 6.18919 29.8571 6.18919C29.8571 6.18919 29.2789 5.81305 29 5.75676C28.7211 5.70047 27.8571 5.61261 27.8571 5.61261V4.17117C27.8571 4.17117 27.1538 2.62822 26.4286 2.00901C25.7033 1.3898 24.4286 1.14414 24.4286 1.14414C24.4286 1.14414 22.4015 1.09468 21.2857 1.43243C20.1699 1.77018 18.7143 3.01802 18.7143 3.01802C18.7143 3.01802 19.2612 3.80869 19.4286 4.31532C19.5959 4.82194 19.5714 5.75676 19.5714 5.75676L20.7857 6.90991L22 8.20721C22 8.20721 24.5596 7.02249 26.4286 6.90991C28.2975 6.79733 31.5714 7.48649 31.5714 7.48649Z" fill="#58883C"/>
<path d="M26.4286 6.90991C24.5596 7.02249 22 8.20721 22 8.20721L23 8.78379C23 8.78379 25.2859 7.65878 27.1429 7.63063C28.9999 7.60249 32.5103 8.63964 32.5103 8.63964C32.2405 8.26288 31.8955 7.81344 31.5714 7.48649C31.5714 7.48649 28.2975 6.79733 26.4286 6.90991Z" fill="#58883C"/>
<path d="M1 33H26.4286C26.4286 33 25.781 31.5662 25 30.6937C24.219 29.8212 22.2857 28.5315 22.2857 28.5315C22.2857 28.5315 21.3246 29.5192 20.5714 29.8288C19.8183 30.1384 18.4286 30.1171 18.4286 30.1171C18.4286 30.1171 11.6889 30.332 8.28571 29.6847C4.88257 29.0373 1 26.8018 1 26.8018V33Z" fill="#0643F6"/>
<path d="M8.85714 18.8739C8.85714 18.8739 7.80227 22.0758 11.4286 23.3423C13.0366 23.904 16.3649 24.5895 19.5714 24.9279C23.5958 25.3527 27.4286 25.3604 27.4286 25.3604C27.4286 25.3604 28.7278 25.2128 29.2857 25.0721C29.8436 24.9314 30.2857 24.4955 30.2857 24.4955C30.2857 24.4955 30.9408 23.9402 30.8571 23.6306C30.7735 23.321 30.2857 23.0541 30.2857 23.0541C30.2857 23.0541 31.242 22.3561 31.7143 21.9009C32.0507 21.5768 32.1429 21.1802 32 20.8919C31.7985 20.4852 31.2857 20.6036 31.2857 20.6036C31.2857 20.6036 26.7413 21.9819 23.1429 21.7568C21.5973 21.6601 18.6249 21.5359 16.7143 21.036C14.1765 20.3721 13.4286 19.5946 13.4286 19.5946C13.4286 19.5946 11.3525 18.1216 10.5714 18.009C9.79038 17.8964 8.85714 18.8739 8.85714 18.8739Z" fill="#9F5934"/>
<path fill-rule="evenodd" clip-rule="evenodd" d="M11 11.0901C11 11.0901 12.7684 13.0552 15 13.2523C16.0316 13.3433 17.9359 13.3921 19.4286 13.1081C21.1649 12.7778 22.4286 12.0991 22.4286 12.0991C22.4286 12.0991 22.5748 11.4841 22.7143 11.0901C22.8538 10.696 23.1429 10.0811 23.1429 10.0811C23.1429 10.0811 21.1961 9.00554 19.8571 8.63964C18.5182 8.27374 16.2857 8.35135 16.2857 8.35135C16.2857 8.35135 14.4607 8.6533 13.4286 9.21622C12.3965 9.77914 11 11.0901 11 11.0901ZM16.2857 8.92793C15.3931 8.95608 14.7143 9.64865 14.7143 9.64865C14.7143 9.64865 14.2857 10.3796 14.2857 10.8018C14.2857 11.224 14.7143 12.0991 14.7143 12.0991C14.7143 12.0991 15.0727 12.5631 15.7143 12.6757C16.3559 12.7883 17.4286 12.6757 17.4286 12.6757C17.4286 12.6757 18.3204 12.3456 18.5714 11.8108C18.8225 11.276 18.7143 10.0811 18.7143 10.0811C18.7143 10.0811 18.5634 9.34597 17.8571 9.07207C17.256 8.83896 16.6961 8.91499 16.2857 8.92793Z" fill="#F8F8F8"/>
<path fill-rule="evenodd" clip-rule="evenodd" d="M22.7143 11.0901C22.5748 11.4841 22.4286 12.0991 22.4286 12.0991C22.4286 12.0991 22.5801 12.2566 22.8571 12.4343C23.0716 12.5719 23.3613 12.7216 23.7143 12.8198C24.5232 13.045 26.5714 13.2523 26.5714 13.2523C27.2198 13.2518 28.937 13.0973 29.7143 12.964C31.3753 12.6791 33 11.8108 33 11.8108V9.7928C33 9.7928 32.1049 9.24276 30.7143 8.92793C29.5215 8.65789 28.0315 8.46951 27.1429 8.4955C25.2181 8.55179 23.1429 10.0811 23.1429 10.0811C23.1429 10.0811 22.8538 10.696 22.7143 11.0901ZM26.8571 9.07207C26.0203 9.07207 25.5714 10.0811 25.5714 10.0811C25.5714 10.0811 25.4286 10.7242 25.4286 11.0901C25.4286 11.456 25.5714 11.955 25.5714 11.955C25.5714 11.955 26.0135 12.5068 26.5714 12.6757C27.1293 12.8446 28.4286 12.6757 28.4286 12.6757C28.4286 12.6757 29.4353 12.3456 29.7143 11.8108C29.9932 11.276 29.8571 10.0811 29.8571 10.0811C29.8571 10.0811 29.7634 9.49005 29 9.21622C28.3698 8.99015 27.2356 9.07207 26.8571 9.07207Z" fill="#F8F8F8"/>
<path d="M28.4286 10.8018C28.4286 10.8018 28.7001 10.7931 28.8571 10.6577C28.9821 10.5499 29 10.325 29 10.2252C29 10.1306 28.9742 9.89657 28.8571 9.7928C28.6957 9.64967 28.4286 9.64865 28.4286 9.64865C28.4286 9.64865 28.1429 9.6768 28 9.7928C27.8571 9.90879 27.8571 10.1126 27.8571 10.2252C27.8571 10.3378 27.8571 10.5417 28 10.6577C28.1429 10.7737 28.4286 10.8018 28.4286 10.8018Z" fill="#F8F8F8"/>
<path d="M27.1429 11.0901C27.1429 11.0901 27.319 11.036 27.4286 10.9459C27.5332 10.86 27.5714 10.7401 27.5714 10.6577C27.5714 10.5813 27.5246 10.4513 27.4286 10.3694C27.3122 10.27 27.1429 10.2252 27.1429 10.2252C27.1429 10.2252 26.9684 10.2772 26.8571 10.3694C26.7545 10.4544 26.7143 10.5766 26.7143 10.6577C26.7143 10.745 26.7465 10.8575 26.8571 10.9459C26.9605 11.0286 27.1429 11.0901 27.1429 11.0901Z" fill="#F8F8F8"/>
<path d="M27.1429 9.93694C27.1429 9.93694 27.3143 9.89231 27.4286 9.7928C27.4286 9.7264 27.6722 9.55773 27.5714 9.50451C27.4586 9.44492 27.5714 9.36036 27.2857 9.21622C27.2358 9.19104 27.112 9.15741 27 9.21622C26.8982 9.26965 26.7143 9.43751 26.7143 9.50451C26.7143 9.57268 26.7534 9.70409 26.8571 9.7928C26.9675 9.88721 27.1429 9.93694 27.1429 9.93694Z" fill="#F8F8F8"/>
<path fill-rule="evenodd" clip-rule="evenodd" d="M14.7143 9.64865C14.7143 9.64865 15.3931 8.95608 16.2857 8.92793C16.6961 8.91499 17.256 8.83896 17.8571 9.07207C18.5634 9.34597 18.7143 10.0811 18.7143 10.0811C18.7143 10.0811 18.8225 11.276 18.5714 11.8108C18.3204 12.3456 17.4286 12.6757 17.4286 12.6757C17.4286 12.6757 16.3559 12.7883 15.7143 12.6757C15.0727 12.5631 14.7143 12.0991 14.7143 12.0991C14.7143 12.0991 14.2857 11.224 14.2857 10.8018C14.2857 10.3796 14.7143 9.64865 14.7143 9.64865ZM17.4286 10.6577C17.2761 10.7862 17 10.8018 17 10.8018C17 10.8018 16.7212 10.7824 16.5714 10.6577C16.4362 10.545 16.4286 10.3321 16.4286 10.2252C16.4286 10.1126 16.4286 9.90879 16.5714 9.7928C16.7143 9.6768 17 9.64865 17 9.64865C17 9.64865 17.2762 9.66434 17.4286 9.7928C17.5604 9.90387 17.5714 10.1208 17.5714 10.2252C17.5714 10.3296 17.5603 10.5466 17.4286 10.6577ZM15.8571 11.0901C15.7381 11.1993 15.5714 11.2342 15.5714 11.2342C15.5714 11.2342 15.393 11.1843 15.2857 11.0901C15.1787 10.9961 15.1429 10.858 15.1429 10.8018C15.1429 10.7455 15.1785 10.6076 15.2857 10.5135C15.3928 10.4195 15.5714 10.3694 15.5714 10.3694C15.5714 10.3694 15.7442 10.4126 15.8571 10.5135C15.9578 10.6035 16 10.7488 16 10.8018C16 10.8508 15.9487 11.0061 15.8571 11.0901Z" fill="#010101"/>
<path d="M17 10.8018C17 10.8018 17.2761 10.7862 17.4286 10.6577C17.5603 10.5466 17.5714 10.3296 17.5714 10.2252C17.5714 10.1208 17.5604 9.90387 17.4286 9.7928C17.2762 9.66434 17 9.64865 17 9.64865C17 9.64865 16.7143 9.6768 16.5714 9.7928C16.4286 9.90879 16.4286 10.1126 16.4286 10.2252C16.4286 10.3321 16.4362 10.545 16.5714 10.6577C16.7212 10.7824 17 10.8018 17 10.8018Z" fill="#F8F8F8"/>
<path d="M15.5714 11.2342C15.5714 11.2342 15.7381 11.1993 15.8571 11.0901C15.9487 11.0061 16 10.8508 16 10.8018C16 10.7488 15.9578 10.6035 15.8571 10.5135C15.7442 10.4126 15.5714 10.3694 15.5714 10.3694C15.5714 10.3694 15.3928 10.4195 15.2857 10.5135C15.1785 10.6076 15.1429 10.7455 15.1429 10.8018C15.1429 10.858 15.1787 10.9961 15.2857 11.0901C15.393 11.1843 15.5714 11.2342 15.5714 11.2342Z" fill="#F8F8F8"/>
<path d="M15.7143 9.93694C15.7143 9.93694 15.8857 9.89231 16 9.7928C16 9.7264 16.2436 9.55773 16.1429 9.50451C16.03 9.44492 16.1429 9.36036 15.8571 9.21622C15.8072 9.19104 15.6834 9.15741 15.5714 9.21622C15.4697 9.26965 15.2857 9.43751 15.2857 9.50451C15.2857 9.57268 15.3249 9.70409 15.4286 9.7928C15.5389 9.88721 15.7143 9.93694 15.7143 9.93694Z" fill="#F8F8F8"/>
<path fill-rule="evenodd" clip-rule="evenodd" d="M25.5714 10.0811C25.5714 10.0811 26.0203 9.07207 26.8571 9.07207C27.2356 9.07207 28.3698 8.99015 29 9.21622C29.7634 9.49005 29.8571 10.0811 29.8571 10.0811C29.8571 10.0811 29.9932 11.276 29.7143 11.8108C29.4353 12.3456 28.4286 12.6757 28.4286 12.6757C28.4286 12.6757 27.1293 12.8446 26.5714 12.6757C26.0135 12.5068 25.5714 11.955 25.5714 11.955C25.5714 11.955 25.4286 11.456 25.4286 11.0901C25.4286 10.7242 25.5714 10.0811 25.5714 10.0811ZM28.8571 10.6577C28.7001 10.7931 28.4286 10.8018 28.4286 10.8018C28.4286 10.8018 28.1429 10.7737 28 10.6577C27.8571 10.5417 27.8571 10.3378 27.8571 10.2252C27.8571 10.1126 27.8571 9.90879 28 9.7928C28.1429 9.6768 28.4286 9.64865 28.4286 9.64865C28.4286 9.64865 28.6957 9.64967 28.8571 9.7928C28.9742 9.89657 29 10.1306 29 10.2252C29 10.325 28.9821 10.5499 28.8571 10.6577ZM27.4286 10.9459C27.319 11.036 27.1429 11.0901 27.1429 11.0901C27.1429 11.0901 26.9605 11.0286 26.8571 10.9459C26.7465 10.8575 26.7143 10.745 26.7143 10.6577C26.7143 10.5766 26.7545 10.4544 26.8571 10.3694C26.9684 10.2772 27.1429 10.2252 27.1429 10.2252C27.1429 10.2252 27.3122 10.27 27.4286 10.3694C27.5246 10.4513 27.5714 10.5813 27.5714 10.6577C27.5714 10.7401 27.5332 10.86 27.4286 10.9459ZM27.4286 9.7928C27.3143 9.89231 27.1429 9.93694 27.1429 9.93694C27.1429 9.93694 26.9675 9.88721 26.8571 9.7928C26.7534 9.70409 26.7143 9.57268 26.7143 9.50451C26.7143 9.43751 26.8982 9.26965 27 9.21622C27.112 9.15741 27.2358 9.19104 27.2857 9.21622C27.5714 9.36036 27.4586 9.44492 27.5714 9.50451C27.6722 9.55773 27.4286 9.7264 27.4286 9.7928Z" fill="#010101"/>
<path d="M22.2857 28.5315C22.2857 28.5315 24.219 29.8212 25 30.6937C25.781 31.5662 26.4286 33 26.4286 33H1V26.8018M22.2857 28.5315C22.2857 28.5315 21.3246 29.5192 20.5714 29.8288C19.8183 30.1384 18.4286 30.1171 18.4286 30.1171C18.4286 30.1171 11.6889 30.332 8.28571 29.6847C4.88257 29.0373 1 26.8018 1 26.8018M22.2857 28.5315C22.2857 28.5315 19.8109 28.9348 17.8571 28.964C14.6209 29.0122 11.099 28.7874 9 28.5315C4.84371 28.0249 1 25.9369 1 25.9369M22.2857 28.5315L22.4286 27.955C22.4286 27.955 24.4523 27.4526 25.4286 26.9459C26.4049 26.4393 27.4286 25.3604 27.4286 25.3604M1 26.8018V25.9369M1 25.9369V13.1081C1 13.1081 1.73121 10.9536 2.42857 10.0811C3.12594 9.20856 4.57143 8.4955 4.57143 8.4955M27.4286 25.3604C27.4286 25.3604 23.5958 25.3527 19.5714 24.9279C16.3649 24.5895 13.0366 23.904 11.4286 23.3423C7.80227 22.0758 8.85714 18.8739 8.85714 18.8739C8.85714 18.8739 9.79038 17.8964 10.5714 18.009C11.3525 18.1216 13.4286 19.5946 13.4286 19.5946C13.4286 19.5946 14.1765 20.3721 16.7143 21.036C18.6249 21.5359 21.5973 21.6601 23.1429 21.7568C26.7413 21.9819 31.2857 20.6036 31.2857 20.6036M27.4286 25.3604C27.4286 25.3604 28.7278 25.2128 29.2857 25.0721C29.8436 24.9314 30.2857 24.4955 30.2857 24.4955C30.2857 24.4955 30.9408 23.9402 30.8571 23.6306C30.7735 23.321 30.2857 23.0541 30.2857 23.0541M31.2857 20.6036C31.2857 20.6036 31.7985 20.4852 32 20.8919C32.1429 21.1802 32.0507 21.5768 31.7143 21.9009C31.242 22.3561 30.2857 23.0541 30.2857 23.0541M31.2857 20.6036C31.2857 20.6036 31.3035 18.9097 30.8571 18.009C30.355 16.9958 29 15.991 29 15.991V15.4144M30.2857 23.0541C30.2857 23.0541 27.054 23.3424 24.5714 23.3424C22.0888 23.3424 17.7143 23.0541 17.7143 23.0541C17.7143 23.0541 14.9662 22.6361 13.5714 22.0451C12.1767 21.454 10.4286 20.027 10.4286 20.027M29 15.4144C29 15.4144 30.3618 14.6485 31.1429 13.973C31.9239 13.2975 32 12.964 32 12.964C32 12.964 32.2333 12.7883 32.4286 12.6757C32.6238 12.5631 33 12.2432 33 12.2432V11.8108M29 15.4144C29 15.4144 26.858 16.1633 25.7143 16.1351C25.2221 16.123 24.6774 15.9612 24.2165 15.7807M31.5714 7.48649C30.902 6.81099 29.8571 6.18919 29.8571 6.18919C29.8571 6.18919 29.2789 5.81305 29 5.75676C28.7211 5.70047 27.8571 5.61261 27.8571 5.61261V4.17117C27.8571 4.17117 27.1538 2.62822 26.4286 2.00901C25.7033 1.3898 24.4286 1.14414 24.4286 1.14414C24.4286 1.14414 22.4015 1.09468 21.2857 1.43243C20.1699 1.77018 18.7143 3.01802 18.7143 3.01802M31.5714 7.48649C31.5714 7.48649 28.2975 6.79733 26.4286 6.90991C24.5596 7.02249 22 8.20721 22 8.20721M31.5714 7.48649C31.8955 7.81344 32.2405 8.26288 32.5103 8.63964M18.7143 3.01802C18.7143 3.01802 17.5232 1.97062 16.7143 1.57658C15.9053 1.18253 14.5714 1 14.5714 1H10.8571C10.8571 1 8.99744 1.55443 7.71429 3.01802C7.13024 3.6842 6.16464 4.9086 5.57143 6.04505C4.86136 7.40536 4.57143 8.4955 4.57143 8.4955M18.7143 3.01802C18.7143 3.01802 19.2612 3.80869 19.4286 4.31532C19.5959 4.82194 19.5714 5.75676 19.5714 5.75676M4.57143 8.4955C4.57143 8.4955 4.3694 9.14202 4.28571 9.64865C4.20203 10.1553 4.14286 11.0901 4.14286 11.0901M19.5714 5.75676C19.5714 5.75676 18.1471 4.70936 17.1429 4.31532C16.1387 3.92127 14.4286 3.73874 14.4286 3.73874C14.4286 3.73874 12.5477 3.80528 11.5714 4.17117C10.5951 4.53707 9.42857 5.61261 9.42857 5.61261M19.5714 5.75676C19.5714 5.75676 21.8665 4.97633 23.4286 4.89189C24.9907 4.80746 27.5714 5.32433 27.5714 5.32433M19.5714 5.75676L20.7857 6.90991M22 8.20721L20.7857 6.90991M22 8.20721L23 8.78379C23 8.78379 25.2859 7.65878 27.1429 7.63063C28.9999 7.60249 32.5103 8.63964 32.5103 8.63964M22 8.20721C22 8.20721 17.8622 7.29288 15.7143 7.63063C13.5664 7.96838 11 9.93694 11 9.93694C11 9.93694 9.58917 9.82436 9.14286 9.93694C8.69654 10.0495 8.71429 10.5135 8.71429 10.5135C8.71429 10.5135 8.69654 10.8052 9.14286 10.9459C9.58917 11.0867 11 11.0901 11 11.0901M20.7857 6.90991C20.7857 6.90991 17.9243 6.65318 16.5714 6.76577C15.2185 6.87835 13.7143 7.48649 13.7143 7.48649C13.7143 7.48649 12.6103 8.15775 11.8571 8.4955C11.104 8.83325 9.85714 9.21622 9.85714 9.21622M32.5103 8.63964C32.7979 9.0413 33 9.36036 33 9.36036V9.79279M11 11.0901C11 11.0901 12.7684 13.0552 15 13.2523C16.0316 13.3433 17.9359 13.3921 19.4286 13.1081C21.1649 12.7778 22.4286 12.0991 22.4286 12.0991M11 11.0901C11 11.0901 12.3965 9.77914 13.4286 9.21622C14.4607 8.6533 16.2857 8.35135 16.2857 8.35135C16.2857 8.35135 18.5182 8.27374 19.8571 8.63964C21.1961 9.00554 23.1429 10.0811 23.1429 10.0811M22.4286 12.0991C22.4286 12.0991 22.5748 11.4841 22.7143 11.0901C22.8538 10.696 23.1429 10.0811 23.1429 10.0811M22.4286 12.0991C22.4286 12.0991 22.5801 12.2566 22.8571 12.4343M23.1429 10.0811C23.1429 10.0811 25.2181 8.55179 27.1429 8.4955C28.0315 8.46951 29.5215 8.65789 30.7143 8.92793C32.1049 9.24276 33 9.79279 33 9.79279M33 9.79279V11.8108M33 11.8108C33 11.8108 31.3753 12.6791 29.7143 12.964C28.937 13.0973 27.2198 13.2518 26.5714 13.2523C26.5714 13.2523 24.5232 13.045 23.7143 12.8198C23.3613 12.7216 23.0716 12.5719 22.8571 12.4343M22.8571 12.4343C22.8571 12.4343 22.3592 13.3279 21.8571 13.6847C21.355 14.0414 20.2857 14.2613 20.2857 14.2613M20.2857 14.2613C20.2857 14.2613 16.6145 14.5427 14.8571 14.2613C13.0998 13.9798 11.2857 12.8198 11.2857 12.8198M20.2857 14.2613C20.2857 14.2613 19.6069 15.0519 18.7143 15.5586C17.8217 16.0652 15.7143 16.8559 15.7143 16.8559M23.1429 15.2703C23.1429 15.2703 23.6062 15.5418 24.2165 15.7807M25.8571 16.8559L24.2165 15.7807M27.4286 9.79279C27.3143 9.89231 27.1429 9.93694 27.1429 9.93694C27.1429 9.93694 26.9675 9.88721 26.8571 9.79279C26.7534 9.70409 26.7143 9.57268 26.7143 9.50451C26.7143 9.43751 26.8982 9.26965 27 9.21622C27.112 9.15741 27.2358 9.19104 27.2857 9.21622C27.5714 9.36036 27.4586 9.44492 27.5714 9.50451C27.6722 9.55773 27.4286 9.7264 27.4286 9.79279ZM27.4286 9.79279C27.5274 9.70675 27.4286 9.85805 27.4286 9.79279ZM14.7143 9.64865C14.7143 9.64865 15.3931 8.95608 16.2857 8.92793C16.6961 8.91499 17.256 8.83896 17.8571 9.07207C18.5634 9.34597 18.7143 10.0811 18.7143 10.0811C18.7143 10.0811 18.8225 11.276 18.5714 11.8108C18.3204 12.3456 17.4286 12.6757 17.4286 12.6757C17.4286 12.6757 16.3559 12.7883 15.7143 12.6757C15.0727 12.5631 14.7143 12.0991 14.7143 12.0991C14.7143 12.0991 14.2857 11.224 14.2857 10.8018C14.2857 10.3796 14.7143 9.64865 14.7143 9.64865ZM25.5714 10.0811C25.5714 10.0811 26.0203 9.07207 26.8571 9.07207C27.2356 9.07207 28.3698 8.99015 29 9.21622C29.7634 9.49005 29.8571 10.0811 29.8571 10.0811C29.8571 10.0811 29.9932 11.276 29.7143 11.8108C29.4353 12.3456 28.4286 12.6757 28.4286 12.6757C28.4286 12.6757 27.1293 12.8446 26.5714 12.6757C26.0135 12.5068 25.5714 11.955 25.5714 11.955C25.5714 11.955 25.4286 11.456 25.4286 11.0901C25.4286 10.7242 25.5714 10.0811 25.5714 10.0811ZM28.4286 10.8018C28.4286 10.8018 28.7001 10.7931 28.8571 10.6577C28.9821 10.5499 29 10.325 29 10.2252C29 10.1306 28.9742 9.89657 28.8571 9.79279C28.6957 9.64967 28.4286 9.64865 28.4286 9.64865C28.4286 9.64865 28.1429 9.6768 28 9.79279C27.8571 9.90879 27.8571 10.1126 27.8571 10.2252C27.8571 10.3378 27.8571 10.5417 28 10.6577C28.1429 10.7737 28.4286 10.8018 28.4286 10.8018ZM27.1429 11.0901C27.1429 11.0901 27.319 11.036 27.4286 10.9459C27.5332 10.86 27.5714 10.7401 27.5714 10.6577C27.5714 10.5813 27.5246 10.4513 27.4286 10.3694C27.3122 10.27 27.1429 10.2252 27.1429 10.2252C27.1429 10.2252 26.9684 10.2772 26.8571 10.3694C26.7545 10.4544 26.7143 10.5766 26.7143 10.6577C26.7143 10.745 26.7465 10.8575 26.8571 10.9459C26.9605 11.0286 27.1429 11.0901 27.1429 11.0901ZM17 9.64865C17 9.64865 17.2762 9.66434 17.4286 9.79279C17.5604 9.90387 17.5714 10.1208 17.5714 10.2252C17.5714 10.3296 17.5603 10.5466 17.4286 10.6577C17.2761 10.7862 17 10.8018 17 10.8018C17 10.8018 16.7212 10.7824 16.5714 10.6577C16.4362 10.545 16.4286 10.3321 16.4286 10.2252C16.4286 10.1126 16.4286 9.90879 16.5714 9.79279C16.7143 9.6768 17 9.64865 17 9.64865ZM15.5714 11.2342C15.5714 11.2342 15.7381 11.1993 15.8571 11.0901C15.9487 11.0061 16 10.8508 16 10.8018C16 10.7488 15.9578 10.6035 15.8571 10.5135C15.7442 10.4126 15.5714 10.3694 15.5714 10.3694C15.5714 10.3694 15.3928 10.4195 15.2857 10.5135C15.1785 10.6076 15.1429 10.7455 15.1429 10.8018C15.1429 10.858 15.1787 10.9961 15.2857 11.0901C15.393 11.1843 15.5714 11.2342 15.5714 11.2342ZM15.7143 9.93694C15.7143 9.93694 15.8857 9.89231 16 9.79279C16 9.7264 16.2436 9.55773 16.1429 9.50451C16.03 9.44492 16.1429 9.36036 15.8571 9.21622C15.8072 9.19104 15.6834 9.15741 15.5714 9.21622C15.4696 9.26965 15.2857 9.43751 15.2857 9.50451C15.2857 9.57268 15.3249 9.70409 15.4286 9.79279C15.5389 9.88721 15.7143 9.93694 15.7143 9.93694Z" stroke="black" stroke-width="0.4"/>
</svg>
